<?xml version="1.0" encoding="utf-8"?>
<!-- Generator: Adobe Illustrator 15.0.0, SVG Export Plug-In . SVG Version: 6.00 Build 0)  -->
<!DOCTYPE svg PUBLIC "-//W3C//DTD SVG 1.1//EN" "http://www.w3.org/Graphics/SVG/1.1/DTD/svg11.dtd">
<svg version="1.1" id="Layer_1" xmlns="http://www.w3.org/2000/svg" xmlns:xlink="http://www.w3.org/1999/xlink" x="0px" y="0px"
	 width="595.28px" height="841.89px" viewBox="0 0 595.28 841.89" enable-background="new 0 0 595.28 841.89" xml:space="preserve">
<g>
	<path d="M206.083,409.89v-50.402h-8.107v-7.348h22.701v7.348h-8.107v50.402H206.083z"/>
	<path d="M223.894,409.89v-57.75h6.486v24.75h11.351v-24.75h6.486v57.75h-6.486v-26.813H230.38v26.813H223.894z"/>
	<path d="M254.703,409.89v-57.75h17.836v6.188h-11.351v18.563h8.107v6.188h-8.107v20.625h11.351v6.188H254.703z"/>
	<path d="M287.057,409.89v-57.75h9.729c2.095,0,3.97,0.279,5.625,0.838c1.656,0.559,3.104,1.407,4.346,2.546
		c1.242,1.139,2.195,2.643,2.863,4.512c0.666,1.869,1,4.05,1,6.542c0,3.609-0.6,6.354-1.799,8.234
		c-1.199,1.88-3.049,3.26-5.549,4.141c2.703,1.139,4.73,2.809,6.082,5.011c1.35,2.203,2.025,5.345,2.025,9.426
		c0,5.092-1.16,9.115-3.482,12.069c-2.322,2.954-5.486,4.431-9.488,4.431H287.057z M293.543,376.89h3.242
		c5.406,0,8.109-3.437,8.109-10.313c0-1.139-0.111-2.143-0.33-3.013c-0.221-0.87-0.482-1.595-0.785-2.175
		c-0.305-0.58-0.766-1.068-1.381-1.466c-0.617-0.397-1.178-0.704-1.686-0.918c-0.506-0.214-1.229-0.371-2.166-0.467
		c-0.937-0.097-1.719-0.156-2.343-0.177c-0.625-0.021-1.512-0.032-2.66-0.032V376.89z M293.543,403.703h3.242
		c2.804,0,4.857-0.822,6.158-2.465s1.951-4.259,1.951-7.847c0-3.588-0.65-6.204-1.951-7.847s-3.354-2.465-6.158-2.465h-3.242
		V403.703z"/>
	<path d="M327.797,410.47c-2.279,0-4.234-0.44-5.865-1.321c-1.629-0.881-2.926-2.17-3.889-3.867
		c-0.963-1.697-1.664-3.69-2.104-5.978s-0.658-4.947-0.658-7.976V370.38c0-3.029,0.219-5.672,0.658-7.928s1.141-4.216,2.104-5.881
		c0.963-1.665,2.26-2.917,3.889-3.754c1.631-0.838,3.586-1.257,5.865-1.257c4.426,0,7.617,1.611,9.578,4.834
		c1.959,3.223,2.939,7.885,2.939,13.986v20.947c0,2.986-0.225,5.624-0.672,7.912s-1.152,4.286-2.115,5.994s-2.26,3.008-3.891,3.899
		C332.008,410.024,330.061,410.47,327.797,410.47z M323.072,401.092c0.869,1.74,2.445,2.61,4.725,2.61
		c2.281,0,3.855-0.87,4.727-2.61c0.869-1.74,1.305-4.307,1.305-7.702v-25.072c0-3.352-0.432-5.854-1.293-7.509
		c-0.861-1.654-2.441-2.481-4.738-2.481s-3.875,0.827-4.736,2.481c-0.863,1.655-1.293,4.157-1.293,7.509v25.072
		C321.768,396.785,322.201,399.352,323.072,401.092z"/>
	<path d="M342.848,409.89l9.729-57.75h6.486l9.729,57.75h-6.486l-2.432-14.438h-8.107l-2.432,14.438H342.848z M352.576,389.265
		h6.486l-3.242-24.75L352.576,389.265z"/>
	<path d="M372.439,409.89v-57.75h8.107c4.83,0,8.471,1.192,10.92,3.577s3.674,6.349,3.674,11.892c0,3.438-0.48,6.316-1.443,8.637
		s-2.373,3.911-4.232,4.77l7.297,28.875h-6.434l-6.537-26.813h-4.865v26.813H372.439z M378.926,376.89h1.621
		c2.703,0,4.73-0.725,6.082-2.175c1.35-1.45,2.025-3.819,2.025-7.106s-0.676-5.656-2.025-7.106c-1.352-1.45-3.379-2.175-6.082-2.175
		h-1.621V376.89z"/>
	<path d="M400.514,409.89v-57.75h10.059c4.746,0,8.094,1.236,10.045,3.706c1.951,2.471,2.926,6.735,2.926,12.794v22.688
		c0,6.338-0.992,11.017-2.977,14.035c-1.984,3.019-5.334,4.528-10.045,4.528H400.514z M407,403.703h3.572
		c1.063,0,1.975-0.124,2.736-0.371c0.76-0.247,1.375-0.698,1.85-1.354c0.473-0.655,0.844-1.278,1.113-1.869
		c0.271-0.591,0.461-1.509,0.57-2.755c0.109-1.246,0.174-2.272,0.191-3.078c0.016-0.806,0.023-2.057,0.023-3.754
		c0-0.559,0-0.978,0-1.257v-18.563c0-1.052-0.004-1.89-0.012-2.514c-0.008-0.623-0.033-1.358-0.076-2.208
		c-0.043-0.849-0.105-1.52-0.189-2.014c-0.086-0.494-0.203-1.047-0.355-1.66s-0.342-1.09-0.57-1.434
		c-0.227-0.343-0.506-0.704-0.836-1.08c-0.328-0.375-0.709-0.655-1.141-0.838c-0.43-0.182-0.932-0.333-1.506-0.451
		c-0.574-0.118-1.217-0.177-1.926-0.177H407V403.703z"/>
</g>
<g>
	<path d="M202.985,490.89v-70h12.463c7.425,0,13.021,1.445,16.786,4.336c3.765,2.891,5.647,7.695,5.647,14.414
		c0,4.167-0.74,7.656-2.22,10.469c-1.48,2.813-3.648,4.74-6.504,5.781l11.217,35h-9.893l-10.048-32.5h-7.478v32.5H202.985z
		 M212.956,450.89h2.493c4.154,0,7.27-0.879,9.347-2.637c2.077-1.758,3.116-4.629,3.116-8.613s-1.039-6.855-3.116-8.613
		c-2.078-1.758-5.193-2.637-9.347-2.637h-2.493V450.89z"/>
	<path d="M246.606,490.89v-70h9.971v70H246.606z"/>
	<path d="M267.249,490.89v-70h15.462c7.296,0,12.443,1.498,15.443,4.492c2.998,2.995,4.498,8.164,4.498,15.508v27.5
		c0,7.683-1.525,13.354-4.576,17.012c-3.051,3.659-8.199,5.488-15.443,5.488H267.249z M277.22,483.39h5.492
		c1.636,0,3.038-0.149,4.206-0.449c1.168-0.299,2.116-0.846,2.843-1.641c0.727-0.794,1.298-1.549,1.714-2.266
		c0.415-0.716,0.707-1.829,0.876-3.34c0.168-1.51,0.266-2.754,0.292-3.73c0.025-0.977,0.039-2.493,0.039-4.551
		c0-0.677,0-1.185,0-1.523v-22.5c0-1.275-0.007-2.291-0.02-3.047c-0.014-0.755-0.053-1.646-0.117-2.676
		c-0.065-1.028-0.162-1.842-0.292-2.441c-0.13-0.599-0.312-1.27-0.545-2.012c-0.234-0.742-0.526-1.321-0.877-1.738
		c-0.35-0.416-0.779-0.853-1.285-1.309c-0.506-0.455-1.09-0.794-1.752-1.016c-0.662-0.221-1.435-0.403-2.317-0.547
		c-0.883-0.143-1.87-0.215-2.96-0.215h-5.297V483.39z"/>
	<path d="M311.377,490.89v-70h27.418v7.5h-17.447v22.5h12.463v7.5h-12.463v25h17.447v7.5H311.377z"/>
	<path d="M344.91,490.89v-70h12.463c7.426,0,13.021,1.445,16.787,4.336s5.648,7.695,5.648,14.414c0,4.167-0.74,7.656-2.221,10.469
		s-3.648,4.74-6.504,5.781l11.217,35h-9.893l-10.049-32.5h-7.479v32.5H344.91z M354.881,450.89h2.492
		c4.154,0,7.271-0.879,9.348-2.637c2.078-1.758,3.117-4.629,3.117-8.613s-1.039-6.855-3.117-8.613
		c-2.076-1.758-5.193-2.637-9.348-2.637h-2.492V450.89z"/>
	<path d="M406.254,491.593c-6.285,0-11.082-1.849-14.393-5.547c-3.311-3.697-5.16-8.75-5.549-15.156l9.971-2.5
		c0.492,10,3.816,15,9.971,15c4.984,0,7.477-2.5,7.477-7.5c0-1.484-0.201-2.857-0.604-4.121c-0.402-1.263-1.02-2.422-1.85-3.477
		s-1.584-1.9-2.258-2.539c-0.676-0.638-1.598-1.426-2.766-2.363l-12.463-10c-2.285-1.797-4.109-4.082-5.473-6.855
		s-2.045-5.931-2.045-9.473c0-5.156,1.598-9.258,4.791-12.305s7.426-4.57,12.697-4.57c5.66,0,10.158,1.387,13.494,4.16
		s5.395,6.699,6.174,11.777c0.078,0.547,0.168,1.303,0.271,2.266l-9.971,2.5c-0.025-0.442-0.09-1.106-0.193-1.992
		c-0.441-3.177-1.436-5.723-2.98-7.637s-3.811-2.871-6.795-2.871c-2.391,0-4.234,0.671-5.531,2.012
		c-1.299,1.342-1.947,3.21-1.947,5.605c0,3.933,1.66,7.227,4.984,9.883l12.463,10c6.648,5.391,9.971,11.836,9.971,19.336
		c0,5.131-1.576,9.141-4.73,12.031C415.814,490.148,411.576,491.593,406.254,491.593z"/>
</g>
<path d="M190.013,352.89v66h-127C63.013,418.89,59.013,372.89,190.013,352.89z"/>
<path d="M432,352.89v66h127C559,418.89,563,372.89,432,352.89z"/>
<path d="M189,490.89v-66H62C62,424.89,58,470.89,189,490.89z"/>
<path d="M432,490.89v-66h127C559,424.89,563,470.89,432,490.89z"/>
</svg>
